<svg xmlns="http://www.w3.org/2000/svg" width="28" height="28" viewBox="0 0 28 28">
    <rect data-name="Button Shape" width="28" height="28" rx="14"/>
    <path data-name="Pay" d="M-2.467-15.245a3.922 3.922 0 0 0 1.1-.261 4.16 4.16 0 0 1 1.319-.261 2.811 2.811 0 0 1 1.632.492 4.083 4.083 0 0 1 .8.767 5.1 5.1 0 0 0-.872.9 2.7 2.7 0 0 0-.5 1.58 2.917 2.917 0 0 0 .529 1.706 2.3 2.3 0 0 0 1.207.961A7.634 7.634 0 0 1 1.8-7.444q-.991 1.5-1.967 1.5a3.4 3.4 0 0 1-1.069-.246 3.515 3.515 0 0 0-1.151-.246 2.924 2.924 0 0 0-1.092.257 2.808 2.808 0 0 1-1.01.257q-1.17 0-2.295-1.982a7.693 7.693 0 0 1-1.122-3.846 4.5 4.5 0 0 1 .86-2.85 2.646 2.646 0 0 1 2.172-1.1 4.977 4.977 0 0 1 1.352.231 4.871 4.871 0 0 0 1.055.224zm2.332-3.077a2.862 2.862 0 0 1-.224 1.043 3.092 3.092 0 0 1-.708 1.051 2.269 2.269 0 0 1-.827.551 3.941 3.941 0 0 1-.79.127 3.418 3.418 0 0 1 .592-1.96A3.042 3.042 0 0 1-.18-18.643a.9.9 0 0 1 .037.171q.008.072.008.15z" transform="translate(16.262 24.851)" style="fill:#fff"/>
</svg>
