<svg xmlns="http://www.w3.org/2000/svg" width="42" height="42" viewBox="0 0 42 42">
    <defs>
        <linearGradient id="fqpxtcfxia" x1=".839" y1=".107" x2=".196" y2=".857" gradientUnits="objectBoundingBox">
            <stop offset="0" stop-color="#a7399f"/>
            <stop offset=".256" stop-color="#c3428c"/>
            <stop offset=".512" stop-color="#df4a79"/>
            <stop offset="1" stop-color="#f79245"/>
        </linearGradient>
    </defs>
    <g transform="translate(3 3)">
        <circle data-name="Ellipse 1 copy 3" cx="21" cy="21" r="21" transform="translate(-3 -3)" style="fill:url(#fqpxtcfxia)"/>
        <path d="M9.927 36.7a5.127 5.127 0 1 0 5.127 5.127A5.118 5.118 0 0 0 9.927 36.7zm0 8.46a3.333 3.333 0 1 1 3.333-3.333 3.339 3.339 0 0 1-3.333 3.333zm6.532-8.669a1.2 1.2 0 1 1-1.2-1.2 1.193 1.193 0 0 1 1.2 1.195zm3.4 1.214a5.918 5.918 0 0 0-1.615-4.19A5.956 5.956 0 0 0 14.05 31.9c-1.651-.094-6.6-.094-8.25 0a5.948 5.948 0 0 0-4.19 1.611A5.937 5.937 0 0 0 0 37.7c-.094 1.651-.094 6.6 0 8.25a5.917 5.917 0 0 0 1.615 4.19A5.964 5.964 0 0 0 5.8 51.75c1.651.094 6.6.094 8.25 0a5.918 5.918 0 0 0 4.19-1.615 5.956 5.956 0 0 0 1.615-4.19c.093-1.65.093-6.594 0-8.245zm-2.137 10.012a3.374 3.374 0 0 1-1.9 1.9c-1.316.522-4.439.4-5.894.4s-4.582.116-5.894-.4a3.374 3.374 0 0 1-1.9-1.9c-.522-1.316-.4-4.439-.4-5.894s-.116-4.582.4-5.894a3.374 3.374 0 0 1 1.9-1.9c1.316-.522 4.439-.4 5.894-.4s4.582-.116 5.894.4a3.374 3.374 0 0 1 1.9 1.9c.522 1.316.4 4.439.4 5.894s.122 4.582-.4 5.894z" transform="translate(8.075 -23.825)" style="fill:#fff"/>
    </g>
</svg>
